{"accessors":[{"bufferView":0,"byteOffset":0,"componentType":5126,"count":30,"max":[5.0,0.0,0.0],"min":[0.0,0.0,-5.0],"normalized":false,"type":"VEC3"},{"bufferView":1,"byteOffset":0,"componentType":5126,"count":30,"max":[1.0,0.0000152590218931437,0.0000610377901466563,1.0],"min":[1.0,-0.0000305198045680299,-0.0000152586571857682,1.0],"normalized":false,"type":"VEC4"},{"bufferView":2,"byteOffset":0,"componentType":5126,"count":30,"max":[0.0000305183457385283,1.0,0.0000239194505411433],"min":[-0.0000152586571857682,1.0,0.0000239175878959941],"normalized":false,"type":"VEC3"},{"bufferView":3,"byteOffset":0,"componentType":5126,"count":30,"max":[0.994735658168793,0.791760146617889],"min":[0.0825970843434334,0.00585946440696716],"normalized":false,"type":"VEC2"},{"bufferView":4,"byteOffset":0,"componentType":5123,"count":75,"max":[29.0],"min":[0.0],"normalized":false,"type":"SCALAR"}],"asset":{"generator":"Godot Engine v4.4.1.stable.official@49a5bc7b616bd04689a2c89e89bda41f50241464","version":"2.0"},"bufferViews":[{"buffer":0,"byteLength":360,"byteOffset":0,"byteStride":12,"target":34962},{"buffer":0,"byteLength":480,"byteOffset":360,"byteStride":16,"target":34962},{"buffer":0,"byteLength":360,"byteOffset":840,"byteStride":12,"target":34962},{"buffer":0,"byteLength":240,"byteOffset":1200,"byteStride":8,"target":34962},{"buffer":0,"byteLength":150,"byteOffset":1440,"target":34963}],"buffers":[{"byteLength":1592,"uri":"street0.bin"}],"extensionsUsed":["GODOT_single_root"],"images":[{"uri":"textures%2F_albedo000.png"}],"materials":[{"extensions":{},"pbrMetallicRoughness":{"baseColorFactor":[1.0,1.0,1.0,1.0],"baseColorTexture":{"index":0},"metallicFactor":0.0,"roughnessFactor":1.0}}],"meshes":[{"extras":{"targetNames":[]},"primitives":[{"attributes":{"NORMAL":2,"POSITION":0,"TANGENT":1,"TEXCOORD_0":3},"indices":4,"material":0,"mode":4}]}],"nodes":[{"children":[1],"name":"Meshlib"},{"mesh":0,"name":"SmEnvRoad01","translation":[1.48763000965118,0.0,7.24690008163452]}],"samplers":[{"magFilter":9729,"minFilter":9987,"wrapS":10497,"wrapT":10497}],"scene":0,"scenes":[{"nodes":[0]}],"textures":[{"sampler":0,"source":0}]}