{"accessors":[{"bufferView":0,"byteOffset":0,"componentType":5126,"count":20,"max":[5.0,0.00000000745058059692383,0.0],"min":[0.0,0.00000000745058059692383,-5.0],"normalized":false,"type":"VEC3"},{"bufferView":1,"byteOffset":0,"componentType":5126,"count":20,"max":[1.0,0.0,0.0000152592547237873,1.0],"min":[-1.0,-0.0000152592547237873,-0.0000152590218931437,1.0],"normalized":false,"type":"VEC4"},{"bufferView":2,"byteOffset":0,"componentType":5126,"count":20,"max":[0.0,1.0,-0.0000152590218931437],"min":[0.0,1.0,-0.0000152590218931437],"normalized":false,"type":"VEC3"},{"bufferView":3,"byteOffset":0,"componentType":5126,"count":20,"max":[0.982243418693542,0.994291365146637],"min":[0.00944507122039795,0.0133757591247559],"normalized":false,"type":"VEC2"},{"bufferView":4,"byteOffset":0,"componentType":5126,"count":20,"max":[0.980769217014313,0.980769217014313],"min":[0.0192307699471712,0.0192307699471712],"normalized":false,"type":"VEC2"},{"bufferView":5,"byteOffset":0,"componentType":5123,"count":42,"max":[19.0],"min":[0.0],"normalized":false,"type":"SCALAR"},{"bufferView":6,"byteOffset":0,"componentType":5126,"count":36,"max":[5.03968000411987,0.0396669991314411,0.039682399481535],"min":[-0.039682399481535,-0.0396669991314411,-5.03968000411987],"normalized":false,"type":"VEC3"},{"bufferView":7,"byteOffset":0,"componentType":5123,"count":36,"max":[35.0],"min":[0.0],"normalized":false,"type":"SCALAR"}],"asset":{"generator":"Godot Engine v4.4.1.stable.official@49a5bc7b616bd04689a2c89e89bda41f50241464","version":"2.0"},"bufferViews":[{"buffer":0,"byteLength":240,"byteOffset":0,"byteStride":12,"target":34962},{"buffer":0,"byteLength":320,"byteOffset":240,"byteStride":16,"target":34962},{"buffer":0,"byteLength":240,"byteOffset":560,"byteStride":12,"target":34962},{"buffer":0,"byteLength":160,"byteOffset":800,"byteStride":8,"target":34962},{"buffer":0,"byteLength":160,"byteOffset":960,"byteStride":8,"target":34962},{"buffer":0,"byteLength":84,"byteOffset":1120,"target":34963},{"buffer":0,"byteLength":432,"byteOffset":1204,"byteStride":12,"target":34962},{"buffer":0,"byteLength":72,"byteOffset":1636,"target":34963}],"buffers":[{"byteLength":1708,"uri":"City_SM_Env_Road_4100.bin"}],"extensions":{"OMI_physics_shape":{"shapes":[{"convex":{"mesh":1},"type":"convex"}]}},"extensionsUsed":["GODOT_single_root","OMI_physics_body","OMI_physics_shape"],"images":[{"uri":"textures%2F_albedo000.png"},{"uri":"textures%2F_normal000.png"}],"materials":[{"extensions":{},"normalTexture":{"index":1,"scale":1.0},"pbrMetallicRoughness":{"baseColorFactor":[1.0,1.0,1.0,1.0],"baseColorTexture":{"index":0},"metallicFactor":0.0,"roughnessFactor":1.0}}],"meshes":[{"extras":{"targetNames":[]},"primitives":[{"attributes":{"NORMAL":2,"POSITION":0,"TANGENT":1,"TEXCOORD_0":3,"TEXCOORD_1":4},"indices":5,"material":0,"mode":4}]},{"extras":{"targetNames":[]},"primitives":[{"attributes":{"POSITION":6},"indices":7,"mode":4}]}],"nodes":[{"children":[1],"mesh":0,"name":"SM_Env_Road_38"},{"children":[2],"extensions":{"OMI_physics_body":{"motion":{"type":"static"}}},"name":"StaticBody3D"},{"extensions":{"OMI_physics_body":{"collider":{"shape":0}}},"name":"CollisionShape3D"}],"samplers":[{"magFilter":9729,"minFilter":9987,"wrapS":10497,"wrapT":10497}],"scene":0,"scenes":[{"nodes":[0]}],"textures":[{"sampler":0,"source":0},{"sampler":0,"source":1}]}